<svg xmlns="http://www.w3.org/2000/svg" xmlns:xlink="http://www.w3.org/1999/xlink" width="500" zoomAndPan="magnify" viewBox="0 0 375 374.999991" height="500" preserveAspectRatio="xMidYMid meet" version="1.0"><defs><clipPath id="d26c179826"><path d="M 115 112.5 L 244 112.5 L 244 262.5 L 115 262.5 Z M 115 112.5 " clip-rule="nonzero"/></clipPath><clipPath id="a65a327430"><path d="M 132.371094 224.152344 L 160.664062 224.152344 L 160.664062 246.992188 L 132.371094 246.992188 Z M 132.371094 224.152344 " clip-rule="nonzero"/></clipPath></defs><g clip-path="url(#d26c179826)"><path fill="#38b6ff" d="M 243.980469 112.5 L 115.855469 112.5 L 127.5 245.019531 L 179.917969 262.5 L 232.335938 245.019531 Z M 218.722656 155.117188 L 180.148438 171.664062 L 217.355469 171.664062 L 213.085938 220.75 L 180.324219 230.355469 L 147.363281 220.574219 L 145.222656 195.832031 L 161.535156 195.832031 L 162.605469 208.648438 L 180.15625 213.101562 L 198.40625 207.945312 L 199.636719 187.324219 L 144.082031 187.164062 L 142.875 171.664062 L 182.441406 155.117188 L 141.441406 155.117188 L 139.503906 139.28125 L 220.324219 139.28125 Z M 218.722656 155.117188 " fill-opacity="1" fill-rule="nonzero"/></g><g clip-path="url(#a65a327430)"><path fill="#38b6ff" d="M 132.371094 224.152344 L 160.652344 224.152344 L 160.652344 246.992188 L 132.371094 246.992188 Z M 132.371094 224.152344 " fill-opacity="1" fill-rule="nonzero"/></g></svg>