<svg xmlns="http://www.w3.org/2000/svg" xmlns:xlink="http://www.w3.org/1999/xlink" width="500" zoomAndPan="magnify" viewBox="0 0 375 374.999991" height="500" preserveAspectRatio="xMidYMid meet" version="1.0"><defs><clipPath id="a7649c36a3"><path d="M 133.636719 153 L 190 153 L 190 234 L 133.636719 234 Z M 133.636719 153 " clip-rule="nonzero"/></clipPath><clipPath id="826756da7b"><path d="M 133.636719 144 L 241.636719 144 L 241.636719 262.5 L 133.636719 262.5 Z M 133.636719 144 " clip-rule="nonzero"/></clipPath><clipPath id="02c7e39428"><path d="M 133.636719 113 L 176 113 L 176 234 L 133.636719 234 Z M 133.636719 113 " clip-rule="nonzero"/></clipPath></defs><path fill="#ffa000" d="M 204.777344 167.273438 L 189.816406 181.15625 L 175.9375 153.226562 L 183.121094 137.167969 C 184.988281 133.90625 187.902344 133.941406 189.722656 137.167969 Z M 204.777344 167.273438 " fill-opacity="1" fill-rule="nonzero"/><g clip-path="url(#a7649c36a3)"><path fill="#f57f17" d="M 175.9375 153.226562 L 189.816406 181.15625 L 133.910156 233.027344 Z M 175.9375 153.226562 " fill-opacity="1" fill-rule="nonzero"/></g><g clip-path="url(#826756da7b)"><path fill="#ffca28" d="M 221.136719 146.054688 C 223.808594 143.492188 226.574219 144.367188 227.28125 147.996094 L 241.832031 232.335938 L 193.597656 261.21875 C 191.914062 262.152344 187.429688 262.550781 187.429688 262.550781 C 187.429688 262.550781 183.347656 262.066406 181.792969 261.152344 L 133.910156 233.027344 Z M 221.136719 146.054688 " fill-opacity="1" fill-rule="nonzero"/></g><g clip-path="url(#02c7e39428)"><path fill="#ffa000" d="M 175.9375 153.226562 L 133.914062 233.027344 L 152.628906 116.402344 C 153.320312 112.769531 155.394531 112.421875 157.246094 115.625 Z M 175.9375 153.226562 " fill-opacity="1" fill-rule="nonzero"/></g></svg>