<svg xmlns="http://www.w3.org/2000/svg" xmlns:xlink="http://www.w3.org/1999/xlink" width="500" zoomAndPan="magnify" viewBox="0 0 375 374.999991" height="500" preserveAspectRatio="xMidYMid meet" version="1.0"><defs><clipPath id="c7708e3814"><path d="M 116.53125 112.5 L 247.78125 112.5 L 247.78125 262.5 L 116.53125 262.5 Z M 116.53125 112.5 " clip-rule="nonzero"/></clipPath></defs><g clip-path="url(#c7708e3814)"><path fill="#e44d26" d="M 128.445312 247.175781 L 116.492188 112.921875 L 247.816406 112.921875 L 235.855469 247.15625 L 182.070312 262.082031 Z M 128.445312 247.175781 " fill-opacity="1" fill-rule="nonzero"/></g><path fill="#f16529" d="M 225.613281 238.605469 L 235.835938 123.902344 L 182.15625 123.902344 L 182.15625 250.675781 Z M 225.613281 238.605469 " fill-opacity="1" fill-rule="nonzero"/><path fill="#ebebeb" d="M 182.097656 140.363281 L 140.925781 140.363281 L 145.363281 190.15625 L 182.15625 190.15625 L 182.15625 173.691406 L 160.402344 173.691406 L 158.898438 156.832031 L 182.15625 156.832031 L 182.15625 140.363281 Z M 182.15625 216.398438 L 182.085938 216.417969 L 163.773438 211.46875 L 162.613281 198.335938 L 146.097656 198.335938 L 148.402344 224.1875 L 182.082031 233.511719 L 182.15625 233.488281 Z M 182.15625 216.398438 " fill-opacity="1" fill-rule="nonzero"/><path fill="#ffffff" d="M 182.097656 190.15625 L 202.34375 190.15625 L 200.484375 211.503906 L 182.144531 216.460938 L 182.144531 233.589844 L 215.851562 224.234375 L 220.367188 173.683594 L 182.15625 173.683594 Z M 222.890625 144.785156 L 223.28125 140.363281 L 182.089844 140.363281 L 182.089844 156.828125 L 221.800781 156.828125 L 222.125 153.128906 Z M 222.890625 144.785156 " fill-opacity="1" fill-rule="nonzero"/></svg>