<svg xmlns="http://www.w3.org/2000/svg" xmlns:xlink="http://www.w3.org/1999/xlink" width="500" zoomAndPan="magnify" viewBox="0 0 375 374.999991" height="500" preserveAspectRatio="xMidYMid meet" version="1.0"><defs><clipPath id="57da0b3aa8"><path d="M 143.277344 145.394531 L 255.777344 145.394531 L 255.777344 257.894531 L 143.277344 257.894531 Z M 143.277344 145.394531 " clip-rule="nonzero"/></clipPath><clipPath id="a6c008bd4a"><path d="M 112.5 112.5 L 262.5 112.5 L 262.5 262.5 L 112.5 262.5 Z M 112.5 112.5 " clip-rule="nonzero"/></clipPath></defs><g clip-path="url(#57da0b3aa8)"><path fill="#000000" d="M 143.277344 145.394531 L 255.777344 145.394531 L 255.777344 257.894531 L 143.277344 257.894531 Z M 143.277344 145.394531 " fill-opacity="1" fill-rule="nonzero"/></g><g clip-path="url(#a6c008bd4a)"><path fill="#ffde59" d="M 119.316406 112.5 C 115.550781 112.5 112.5 115.550781 112.5 119.316406 L 112.5 255.683594 C 112.5 259.449219 115.550781 262.5 119.316406 262.5 L 255.683594 262.5 C 259.449219 262.5 262.5 259.449219 262.5 255.683594 L 262.5 119.316406 C 262.5 115.550781 259.449219 112.5 255.683594 112.5 Z M 218.183594 194.316406 C 216.300781 194.316406 214.773438 195.84375 214.773438 197.726562 L 214.773438 201.136719 C 214.773438 203.019531 216.300781 204.546875 218.183594 204.546875 L 228.410156 204.546875 C 237.824219 204.546875 245.453125 212.175781 245.453125 221.589844 L 245.453125 225 C 245.453125 234.414062 237.824219 242.046875 228.410156 242.046875 L 207.953125 242.046875 L 207.953125 228.410156 L 228.410156 228.410156 C 230.292969 228.410156 231.816406 226.882812 231.816406 225 L 231.816406 221.589844 C 231.816406 219.707031 230.292969 218.183594 228.410156 218.183594 L 218.183594 218.183594 C 208.769531 218.183594 201.136719 210.550781 201.136719 201.136719 L 201.136719 197.726562 C 201.136719 188.3125 208.769531 180.683594 218.183594 180.683594 L 238.636719 180.683594 L 238.636719 194.316406 Z M 184.089844 187.5 L 184.089844 225 C 184.089844 226.882812 182.5625 228.410156 180.683594 228.410156 L 170.453125 228.410156 C 168.570312 228.410156 167.046875 226.882812 167.046875 225 L 167.046875 221.589844 L 153.410156 221.589844 L 153.410156 225 C 153.410156 234.414062 161.039062 242.046875 170.453125 242.046875 L 180.683594 242.046875 C 190.09375 242.046875 197.726562 234.414062 197.726562 225 L 197.726562 187.5 Z M 184.089844 187.5 " fill-opacity="1" fill-rule="evenodd"/></g></svg>